HIERARCHY
ROOT joint_Root
{
	OFFSET 0.0 0.0 0.0
	CHANNELS 6 Xposition Yposition Zposition Zrotation Xrotation Yrotation 
	JOINT Hips
	{
		OFFSET -0.726466 93.3139 -2.00062
		CHANNELS 6 Xposition Yposition Zposition Zrotation Xrotation Yrotation 
		JOINT Spine
		{
			OFFSET 15.7357 0.0 0.0
			CHANNELS 6 Xposition Yposition Zposition Zrotation Xrotation Yrotation 
			JOINT Chest
			{
				OFFSET 8.98455 -0.406207 0.0
				CHANNELS 6 Xposition Yposition Zposition Zrotation Xrotation Yrotation 
				JOINT Neck
				{
					OFFSET 16.3773 0.0 0.0
					CHANNELS 6 Xposition Yposition Zposition Zrotation Xrotation Yrotation 
					JOINT Head
					{
						OFFSET 6.45672 0.0 0.0
						CHANNELS 6 Xposition Yposition Zposition Zrotation Xrotation Yrotation 
						End Site
						{
							OFFSET 0.0 0.0 0.0
						}
					}
				}
				JOINT Shoulder_L
				{
					OFFSET 12.9942 -0.242716 4.98039
					CHANNELS 6 Xposition Yposition Zposition Zrotation Xrotation Yrotation 
					JOINT UpperArm_L
					{
						OFFSET 5.34809 0.0 0.0
						CHANNELS 6 Xposition Yposition Zposition Zrotation Xrotation Yrotation 
						JOINT LowerArm_L
						{
							OFFSET 24.3286 1.87007e-05 0.0
							CHANNELS 6 Xposition Yposition Zposition Zrotation Xrotation Yrotation 
							JOINT Hand_L
							{
								OFFSET 22.2916 0.0 0.0
								CHANNELS 6 Xposition Yposition Zposition Zrotation Xrotation Yrotation 
								End Site
								{
									OFFSET 0.0 0.0 0.0
								}
							}
						}
					}
				}
				JOINT Shoulder_R
				{
					OFFSET 12.9945 -0.242716 -4.98039
					CHANNELS 6 Xposition Yposition Zposition Zrotation Xrotation Yrotation 
					JOINT UpperArm_R
					{
						OFFSET -5.34813 0.0 0.0
						CHANNELS 6 Xposition Yposition Zposition Zrotation Xrotation Yrotation 
						JOINT LowerArm_R
						{
							OFFSET -24.3289 0.000322201 0.0
							CHANNELS 6 Xposition Yposition Zposition Zrotation Xrotation Yrotation 
							JOINT Hand_R
							{
								OFFSET -22.2915 -0.000108084 0.0
								CHANNELS 6 Xposition Yposition Zposition Zrotation Xrotation Yrotation 
								End Site
								{
									OFFSET 0.0 0.0 0.0
								}
							}
						}
					}
				}
			}
		}
		JOINT UpperLeg_L
		{
			OFFSET -2.19248 -6.46944 0.0
			CHANNELS 6 Xposition Yposition Zposition Zrotation Xrotation Yrotation 
			JOINT LowerLeg_L
			{
				OFFSET 39.0811 0.0 -1.23785e-05
				CHANNELS 6 Xposition Yposition Zposition Zrotation Xrotation Yrotation 
				JOINT Foot_L
				{
					OFFSET 40.9854 0.0 -1.26872e-05
					CHANNELS 6 Xposition Yposition Zposition Zrotation Xrotation Yrotation 
					JOINT Toes_L
					{
						OFFSET 11.7543 0.0 0.0
						CHANNELS 6 Xposition Yposition Zposition Zrotation Xrotation Yrotation 
						End Site
						{
							OFFSET 0.0 0.0 0.0
						}
					}
				}
			}
		}
		JOINT UpperLeg_R
		{
			OFFSET -2.19251 6.46944 0.0
			CHANNELS 6 Xposition Yposition Zposition Zrotation Xrotation Yrotation 
			JOINT LowerLeg_R
			{
				OFFSET -39.0811 -0.00228153 -0.0401928
				CHANNELS 6 Xposition Yposition Zposition Zrotation Xrotation Yrotation 
				JOINT Foot_R
				{
					OFFSET -40.9854 0.0 0.0
					CHANNELS 6 Xposition Yposition Zposition Zrotation Xrotation Yrotation 
					JOINT Toes_R
					{
						OFFSET -11.7543 0.0 0.0
						CHANNELS 6 Xposition Yposition Zposition Zrotation Xrotation Yrotation 
						End Site
						{
							OFFSET 0.0 0.0 0.0
						}
					}
				}
			}
		}
	}
}
MOTION
Frames:	4
Frame Time:	0.0333333
0.000000 0.000000 0.000000 0.000000 0.000000 -0.000000 -0.944480 91.908200 -0.457087 87.810500 -0.590232 4.321360 15.735700 0.000005 -0.000001 82.336700 85.385300 -81.831900 8.984550 -0.406207 -0.000000 1.387060 -1.258240 1.024110 16.377300 -0.000001 -0.000001 1.841150 -2.365460 0.723758 6.456720 -0.000001 -0.000000 3.551270 -1.628080 -0.331340 12.994200 -0.242716 4.980390 -90.030600 0.096333 -72.406500 5.348090 -0.000007 -0.000001 -67.904100 34.748900 -13.739100 24.328600 0.000019 0.000005 2.888440 6.458340 -24.159000 22.291600 -0.000001 0.000005 5.131700 5.542120 -8.339440 12.994500 -0.242716 -4.980390 88.008300 6.009880 -71.626500 -5.348130 -0.000001 -0.000004 -65.234600 36.756000 -14.844000 -24.328900 0.000322 -0.000009 1.114310 2.970150 -20.593400 -22.291500 -0.000108 -0.000004 7.813870 5.492380 -6.229240 -2.192480 -6.469440 -0.000000 -168.407000 -17.733900 -2.122720 39.081100 -0.000007 -0.000012 -0.199360 0.475700 22.738200 40.985400 -0.000006 -0.000013 -7.147360 -1.361150 -63.902100 11.754300 -0.000000 0.000003 -0.000111 -0.001129 -16.620800 -2.192510 6.469440 -0.000001 173.542000 22.306100 -179.430000 -39.081100 -0.002282 -0.040193 -0.062619 0.179656 20.155100 -40.985400 0.000008 0.000006 -4.367740 1.016970 -63.789500 -11.754300 -0.000006 -0.000006 -0.002892 -0.039371 -18.174200
0.000000 0.000000 0.000000 0.000000 0.000000 -0.000000 -0.942468 91.914600 -0.467066 87.848800 -0.618509 4.332010 15.735700 0.000005 -0.000001 82.335600 85.387200 -81.846800 8.984550 -0.406207 -0.000000 1.383080 -1.257050 0.991927 16.377300 -0.000001 -0.000001 1.747890 -2.415370 0.714182 6.456720 -0.000001 -0.000000 3.540970 -1.661430 -0.274462 12.994200 -0.242716 4.980390 -90.047800 0.149587 -72.280000 5.348090 -0.000007 -0.000001 -67.445600 32.424100 -13.706000 24.328600 0.000019 0.000005 2.945260 6.401250 -24.772100 22.291600 -0.000001 0.000005 5.544230 5.546920 -8.561290 12.994500 -0.242716 -4.980390 88.020900 5.921760 -71.482200 -5.348130 -0.000001 -0.000004 -65.130500 34.866400 -14.716000 -24.328900 0.000322 -0.000009 1.088860 2.837940 -21.019700 -22.291500 -0.000108 -0.000004 7.981840 5.493490 -6.273200 -2.192480 -6.469440 -0.000000 -168.435000 -17.803900 -2.080030 39.081100 -0.000007 -0.000012 -0.198307 0.474778 22.669800 40.985400 -0.000006 -0.000013 -7.137650 -1.339190 -63.853400 11.754300 -0.000000 0.000003 -0.000096 -0.000993 -16.615700 -2.192510 6.469440 -0.000001 173.508000 22.328200 -179.443000 -39.081100 -0.002282 -0.040193 -0.062103 0.178086 20.172200 -40.985400 0.000008 0.000006 -4.318020 1.035360 -63.784400 -11.754300 -0.000006 -0.000006 -0.002875 -0.039175 -18.166300
0.000000 0.000000 0.000000 0.000000 0.000000 -0.000000 -0.965944 91.918800 -0.468756 87.826400 -0.611244 4.386710 15.735700 0.000005 -0.000001 82.271600 85.378500 -81.781900 8.984550 -0.406207 -0.000000 1.399070 -1.269570 0.994018 16.377300 -0.000001 -0.000001 1.690090 -2.468440 0.708193 6.456720 -0.000001 -0.000000 3.524890 -1.775780 -0.278919 12.994200 -0.242716 4.980390 -90.066300 0.205978 -72.158400 5.348090 -0.000007 -0.000001 -66.167100 29.722000 -14.206700 24.328600 0.000019 0.000005 2.849950 6.094850 -25.120100 22.291600 -0.000001 0.000005 5.981860 5.552800 -8.838950 12.994500 -0.242716 -4.980390 88.030300 5.831580 -71.300200 -5.348130 -0.000001 -0.000004 -64.453600 32.676200 -14.944400 -24.328900 0.000322 -0.000009 1.022900 2.610990 -21.422600 -22.291500 -0.000108 -0.000004 8.212210 5.494300 -6.305140 -2.192480 -6.469440 -0.000000 -168.378000 -17.754100 -1.994760 39.081100 -0.000007 -0.000012 -0.197515 0.473931 22.624600 40.985400 -0.000006 -0.000013 -7.154940 -1.319960 -63.836400 11.754300 -0.000000 0.000003 -0.000104 -0.001067 -16.618500 -2.192510 6.469440 -0.000001 173.536000 22.349100 -179.385000 -39.081100 -0.002282 -0.040193 -0.058531 0.168357 20.172700 -40.985400 0.000008 0.000006 -4.191120 1.033150 -63.795900 -11.754300 -0.000006 -0.000006 -0.002943 -0.039953 -18.197900
0.000000 0.000000 0.000000 0.000000 0.000000 -0.000000 -0.990198 91.907500 -0.479797 87.829900 -0.580717 4.446390 15.735700 0.000005 -0.000001 82.163600 85.371500 -81.681300 8.984550 -0.406207 -0.000000 1.410430 -1.288260 0.979673 16.377300 -0.000001 -0.000001 1.724760 -2.497180 0.648806 6.456720 -0.000001 -0.000000 3.456850 -1.850210 -0.208166 12.994200 -0.242716 4.980390 -90.068000 0.210465 -72.101500 5.348090 -0.000007 -0.000001 -64.193200 26.504900 -15.270400 24.328600 0.000019 0.000005 2.734110 5.871460 -25.024300 22.291600 -0.000001 0.000005 6.510900 5.556660 -9.024140 12.994500 -0.242716 -4.980390 88.052900 5.717480 -71.157700 -5.348130 -0.000001 -0.000004 -63.100300 30.108400 -15.634700 -24.328900 0.000322 -0.000009 1.028830 2.587460 -21.712800 -22.291500 -0.000108 -0.000004 8.538240 5.494090 -6.297290 -2.192480 -6.469440 -0.000000 -168.335000 -17.728700 -1.965090 39.081100 -0.000007 -0.000012 -0.200537 0.480061 22.672200 40.985400 -0.000006 -0.000013 -7.175540 -1.290850 -63.846800 11.754300 -0.000000 0.000003 -0.000100 -0.001028 -16.617000 -2.192510 6.469440 -0.000001 173.500000 22.359000 -179.333000 -39.081100 -0.002282 -0.040193 -0.063261 0.180796 20.217300 -40.985400 0.000008 0.000006 -4.331250 1.063450 -63.820200 -11.754300 -0.000006 -0.000006 -0.002895 -0.039414 -18.176000
